Coordinates
version=1
nRows=9
nColumns=36
inDegrees=yes

Units are S.I. units (second, meters, Newtons, ...)
If the header above contains a line with 'inDegrees', this indicates whether rotational values are in degrees (yes) or radians (no).

endheader
time	pelvis_tilt	pelvis_list	pelvis_rotation	pelvis_tx	pelvis_ty	pelvis_tz	hip_flexion_r	hip_adduction_r	hip_rotation_r	knee_angle_r	knee_angle_r_beta	ankle_angle_r	subtalar_angle_r	mtp_angle_r	hip_flexion_l	hip_adduction_l	hip_rotation_l	knee_angle_l	knee_angle_l_beta	ankle_angle_l	subtalar_angle_l	mtp_angle_l	lumbar_extension	lumbar_bending	lumbar_rotation	arm_flex_r	arm_add_r	arm_rot_r	elbow_flex_r	pro_sup_r	arm_flex_l	arm_add_l	arm_rot_l	elbow_flex_l	pro_sup_l
      0.00000000	     -6.43894788	      0.30007082	    178.16941166	      0.73622641	      1.08454221	      0.75271908	     19.34376317	     -3.52096864	     -0.08858867	     51.15034127	      0.89274187	     -6.97441328	    -20.08308862	     -7.53650708	     -4.16671760	      1.52144164	     -0.77896138	     12.54542864	      0.21895904	      5.49378216	     -8.24172913	     -7.53650708	    -23.53127283	     -1.46390575	      1.95000491	      2.59816832	    -12.12359103	     -6.88137910	     32.17927203	    101.44954400	     22.27137284	    -15.48748862	      6.45896390	     27.38275569	     99.31827611
      0.01666670	     -5.34616741	     -0.30692524	    178.65595529	      0.73615519	      1.08232427	      0.75061989	     21.11833478	     -3.91505008	     -0.33129489	     47.66285754	      0.83187379	     -4.44301114	    -16.64950353	     -7.52975476	     -3.98020578	      1.98498796	      1.47926661	     12.41665977	      0.21671160	      4.65869484	     -7.50150391	     -7.52975476	    -22.22841153	     -2.36494092	      1.27058983	      1.24299260	    -11.15027763	     -7.56744130	     33.61430916	    105.17413515	     23.33170716	    -16.27938047	      8.35718830	     26.99703925	    103.52413821
      0.03333330	     -3.80245170	     -0.63049951	    179.42771800	      0.73652644	      1.08067892	      0.74922978	     22.37916279	     -4.36228369	     -0.90942766	     42.19047286	      0.73636266	     -4.33350850	    -15.36143822	     -7.52960917	     -3.56763526	      2.01229408	      2.42871497	     11.80872307	      0.20610110	      3.99861996	     -6.79287399	     -7.52960917	    -20.43768495	     -2.55942126	      0.02247015	      1.03149817	    -10.47335353	     -6.80919124	     32.79548647	    106.58501827	     23.72820641	    -17.11314791	      8.93086548	     26.54750978	    103.99882853
      0.05000000	     -2.49997116	     -0.90185505	    180.46707180	      0.73915912	      1.07914457	      0.74781239	     22.95058010	     -4.72950448	     -1.69451543	     35.97004791	      0.62779577	     -3.66567265	    -13.90480643	     -7.52847667	     -3.44422108	      1.98511960	      3.46546057	     11.04572394	      0.19278425	      4.58433510	     -5.55598936	     -7.52847667	    -19.21422519	     -2.75583120	     -1.02813924	      0.74453708	     -9.86506774	     -6.40598659	     32.02770515	    106.68290205	     24.34993902	    -17.77648199	      9.13225715	     26.87714236	    103.43459555
      0.06666670	     -1.37007780	     -0.98691122	    181.46569646	      0.74214391	      1.07897662	      0.74638982	     23.02567735	     -4.93270240	     -2.50084962	     29.33123472	      0.51192662	     -3.91185841	    -12.00663826	     -7.52718540	     -3.47641931	      1.83053968	      4.31887232	     10.28817362	      0.17956250	      5.09061663	     -4.12163093	     -7.52718540	    -18.23930050	     -2.67018066	     -1.87553750	      0.44954701	     -9.50222212	     -6.22343755	     31.66076589	    106.38157783	     24.70738393	    -18.17739798	      8.86264946	     27.57879929	    102.69143013
      0.08333330	     -0.56902753	     -1.06919968	    182.22089685	      0.74309323	      1.08067279	      0.74384007	     22.44913516	     -4.95542109	     -2.83915450	     22.55987468	      0.39374409	     -4.27849991	     -9.46193911	     -7.52625308	     -3.74058565	      1.72411217	      4.96883031	      9.81428699	      0.17129162	      5.76414883	     -2.99363191	     -7.52625308	    -17.55830217	     -2.68393656	     -2.42008574	      0.24772913	     -9.18796539	     -5.95471865	     31.30324017	    106.12331584	     24.95489499	    -18.37521195	      8.34240247	     28.30569756	    102.19822314
      0.10000000	     -0.07436882	     -1.19009311	    182.76217282	      0.74229833	      1.08114494	      0.74023141	     21.42468955	     -4.84439562	     -2.72439906	     16.63710432	      0.29037225	     -4.37624658	     -6.39407831	     -7.52541410	     -4.05825683	      1.65522833	      5.23451732	      9.95660912	      0.17377561	      6.43865909	     -2.07312061	     -7.52541410	    -17.09077942	     -2.82869366	     -2.78561929	      0.09682618	     -8.84595628	     -5.65802654	     30.89362802	    105.70833971	     25.16666516	    -18.49210344	      7.80873966	     29.03080348	    101.71872979
      0.11666670	      0.19143090	     -1.32660325	    183.14675933	      0.74165693	      1.07895505	      0.73710583	     20.25240251	     -4.58852113	     -2.08930182	     12.49840645	      0.21813834	     -4.12938820	     -3.30783046	     -7.52468392	     -4.21070821	      1.58466121	      5.18590109	     10.87575625	      0.18981776	      7.19685531	     -1.40987427	     -7.52468392	    -16.83376140	     -3.09382296	     -2.78061076	     -0.19352178	     -8.61361632	     -5.62045660	     30.53730505	    105.46225464	     25.67835859	    -18.47304423	      7.69016840	     29.67335733	    101.64946154
      0.13333330	      0.39826701	     -1.31048663	    183.35725710	      0.74193551	      1.07369211	      0.73551489	     19.28298131	     -4.08690063	     -1.04303104	     10.18480875	      0.17775845	     -3.69349207	     -0.49935181	     -7.52138947	     -4.06061773	      1.34531534	      4.81145666	     12.44324434	      0.21717558	      7.96383103	     -0.93152430	     -7.52138947	    -16.57276899	     -3.22431755	     -2.70332653	     -0.11709809	     -8.63644527	     -4.44281685	     29.72465863	    102.26924878	     26.19641544	    -18.45666772	      8.13249898	     30.25294053	     98.98733699
